<svg xmlns:dc="http://purl.org/dc/elements/1.1/" xmlns:cc="http://creativecommons.org/ns#" xmlns:rdf="http://www.w3.org/1999/02/22-rdf-syntax-ns#" xmlns:svg="http://www.w3.org/2000/svg" xmlns="http://www.w3.org/2000/svg" viewBox="0 0 5.290632 6.616522" version="1.1" x="0px" y="0px"><g transform="translate(-34.926035,-34.3948)"><g style="" transform="translate(1.4069549e-7,-290.64999)" display="inline"><path transform="matrix(0.26458334,0,0,0.26458334,-1.4069549e-7,290.64999)" d="m 135,129.99609 c -1.64501,0 -2.99609,1.36086 -2.99609,3.00586 v 2.9961 c 0,1.64504 1.35108,3.0039 2.99609,3.0039 h 2.99609 c 1.64501,0 3.00586,-1.35886 3.00586,-3.0039 v -2.9961 c 0,-1.645 -1.36084,-3.00586 -3.00586,-3.00586 z m 10.99805,0 c -1.64502,0 -2.9961,1.36086 -2.9961,3.00586 v 2.9961 c 0,1.64504 1.35108,3.0039 2.9961,3.0039 h 3.00586 c 1.64501,0 2.99609,-1.35886 2.99609,-3.0039 v -2.9961 c 0,-1.645 -1.35108,-3.00586 -2.99609,-3.00586 z M 135,131.99805 h 2.99609 c 0.56413,0 1.00586,0.43981 1.00586,1.0039 v 2.9961 c 0,0.56413 -0.44173,1.0039 -1.00586,1.0039 H 135 c -0.56413,0 -0.99609,-0.43977 -0.99609,-1.0039 v -2.9961 c 0,-0.56409 0.43196,-1.0039 0.99609,-1.0039 z m 10.99805,0 h 3.00586 c 0.56412,0 0.99609,0.43981 0.99609,1.0039 v 2.9961 c 0,0.56413 -0.43197,1.0039 -0.99609,1.0039 h -3.00586 c -0.56413,0 -0.9961,-0.43977 -0.9961,-1.0039 v -2.9961 c 0,-0.56409 0.43197,-1.0039 0.9961,-1.0039 z M 135,141.00391 c -1.64501,0 -2.99609,1.35109 -2.99609,2.99609 v 2.99805 c 0,1.645 1.35108,3.0039 2.99609,3.0039 h 2.99609 c 1.64501,0 3.00586,-1.3589 3.00586,-3.0039 V 144 c 0,-1.645 -1.36084,-2.99609 -3.00586,-2.99609 z m 10.99805,0 c -1.64502,0 -2.9961,1.35109 -2.9961,2.99609 v 2.99805 c 0,1.645 1.35108,3.0039 2.9961,3.0039 h 3.00586 c 1.64501,0 2.99609,-1.3589 2.99609,-3.0039 V 144 c 0,-1.645 -1.35108,-2.99609 -2.99609,-2.99609 z m -10.99805,2 h 2.99609 c 0.56413,0 1.00586,0.43196 1.00586,0.99609 v 2.99805 c 0,0.56413 -0.44173,1.0039 -1.00586,1.0039 H 135 c -0.56413,0 -0.99609,-0.43977 -0.99609,-1.0039 V 144 c 0,-0.56413 0.43196,-0.99609 0.99609,-0.99609 z m 10.99805,0 h 3.00586 c 0.56412,0 0.99609,0.43196 0.99609,0.99609 v 2.99805 c 0,0.56413 -0.43197,1.0039 -0.99609,1.0039 h -3.00586 c -0.56413,0 -0.9961,-0.43977 -0.9961,-1.0039 V 144 c 0,-0.56413 0.43197,-0.99609 0.9961,-0.99609 z" style="color:#000000;font-style:normal;font-variant:normal;font-weight:normal;font-stretch:normal;font-size:medium;line-height:normal;font-family:sans-serif;font-variant-ligatures:normal;font-variant-position:normal;font-variant-caps:normal;font-variant-numeric:normal;font-variant-alternates:normal;font-variant-east-asian:normal;font-feature-settings:normal;font-variation-settings:normal;text-indent:0;text-align:start;text-decoration:none;text-decoration-line:none;text-decoration-style:solid;text-decoration-color:#000000;letter-spacing:normal;word-spacing:normal;text-transform:none;writing-mode:lr-tb;direction:ltr;text-orientation:mixed;dominant-baseline:auto;baseline-shift:baseline;text-anchor:start;white-space:normal;shape-padding:0;shape-margin:0;inline-size:0;clip-rule:nonzero;display:inline;overflow:visible;visibility:visible;opacity:1;isolation:auto;mix-blend-mode:normal;color-interpolation:sRGB;color-interpolation-filters:linearRGB;solid-color:#000000;solid-opacity:1;vector-effect:none;fill:#000000;fill-opacity:1;fill-rule:nonzero;stroke:none;stroke-width:2.00001;stroke-linecap:round;stroke-linejoin:round;stroke-miterlimit:4;stroke-dasharray:none;stroke-dashoffset:0;stroke-opacity:1;paint-order:markers fill stroke;color-rendering:auto;image-rendering:auto;shape-rendering:auto;text-rendering:auto;enable-background:accumulate;stop-color:#000000;stop-opacity:1"/></g></g><text x="0" y="20.2932176" fill="#000000" font-size="5px" font-weight="bold" font-family="'Helvetica Neue', Helvetica, Arial-Unicode, Arial, Sans-serif"></text><text x="0" y="25.2932176" fill="#000000" font-size="5px" font-weight="bold" font-family="'Helvetica Neue', Helvetica, Arial-Unicode, Arial, Sans-serif"></text></svg>