<svg xmlns="http://www.w3.org/2000/svg" xmlns:cc="http://creativecommons.org/ns#" xmlns:dc="http://purl.org/dc/elements/1.1/" xmlns:rdf="http://www.w3.org/1999/02/22-rdf-syntax-ns#" version="1.1" viewBox="0 0 100 125" x="0px" y="0px"><path d="m6.5098 5.9766c-1.3711 0-2.4746 1.0646-2.4746 2.3867v17.273c1e-7 1.3221 1.1035 2.3867 2.4746 2.3867h17.096c1.3711 0 2.4766-1.0646 2.4766-2.3867v-17.273c0-1.3221-1.1055-2.3867-2.4766-2.3867h-17.096zm30.928 0.0097656c-1.3711 0-2.4746 1.0646-2.4746 2.3867v17.264c0 1.3221 1.1035 2.3867 2.4746 2.3867h56.74c1.3711 0 2.4746-1.0646 2.4746-2.3867v-17.264c0-1.3221-1.1035-2.3867-2.4746-2.3867h-56.74zm-30.928 32.99c-1.3711 0-2.4746 1.0646-2.4746 2.3867v17.273c1e-7 1.3221 1.1035 2.3867 2.4746 2.3867h17.096c1.3711 0 2.4766-1.0646 2.4766-2.3867v-17.273c0-1.3221-1.1055-2.3867-2.4766-2.3867h-17.096zm30.928 0.009766c-1.3711 0-2.4746 1.0646-2.4746 2.3867v17.264c0 1.3221 1.1035 2.3867 2.4746 2.3867h56.74c1.3711 0 2.4746-1.0646 2.4746-2.3867v-17.264c0-1.3221-1.1035-2.3867-2.4746-2.3867h-56.74zm-30.928 32.99c-1.3711 0-2.4746 1.0646-2.4746 2.3867v17.273c1e-7 1.3221 1.1035 2.3867 2.4746 2.3867h17.096c1.3711-1e-6 2.4766-1.0646 2.4766-2.3867v-17.273c0-1.3221-1.1055-2.3867-2.4766-2.3867h-17.096zm30.928 0.009766c-1.3711 0-2.4746 1.0646-2.4746 2.3867v17.264c0 1.3221 1.1035 2.3867 2.4746 2.3867h56.74c1.3711-1e-6 2.4746-1.0646 2.4746-2.3867v-17.264c0-1.3221-1.1035-2.3867-2.4746-2.3867h-56.74z"/><text x="0" y="115" fill="#000000" font-size="5px" font-weight="bold" font-family="'Helvetica Neue', Helvetica, Arial-Unicode, Arial, Sans-serif"></text><text x="0" y="120" fill="#000000" font-size="5px" font-weight="bold" font-family="'Helvetica Neue', Helvetica, Arial-Unicode, Arial, Sans-serif"></text></svg>