<svg xmlns:dc="http://purl.org/dc/elements/1.1/" xmlns:cc="http://creativecommons.org/ns#" xmlns:rdf="http://www.w3.org/1999/02/22-rdf-syntax-ns#" xmlns:svg="http://www.w3.org/2000/svg" xmlns="http://www.w3.org/2000/svg" xmlns:sodipodi="http://sodipodi.sourceforge.net/DTD/sodipodi-0.dtd" xmlns:inkscape="http://www.inkscape.org/namespaces/inkscape" version="1.1" x="0px" y="0px" viewBox="0 0 60 75"><g transform="translate(0,-992.3622)"><path d="m 26.375,996.3622 -1.8125,6.3125 c -1.64186,0.4523 -3.20781,1.1134 -4.65625,1.9375 l -5.71875,-3.1875 -5.125,5.125 3.1875,5.7188 c -0.8241,1.4484 -1.48518,3.0144 -1.9375,4.6562 L 4,1018.7372 l 0,7.25 6.3125,1.8125 c 0.45232,1.6419 1.1134,3.2078 1.9375,4.6563 l -3.1875,5.7187 5.125,5.125 5.71875,-3.1875 c 1.44844,0.8241 3.01439,1.4852 4.65625,1.9375 l 1.8125,6.3125 7.25,0 1.8125,-6.3125 c 1.64185,-0.4523 3.20782,-1.1134 4.65625,-1.9375 l 5.71875,3.1875 5.125,-5.125 -3.1875,-5.7187 c 0.8241,-1.4485 1.48518,-3.0144 1.9375,-4.6563 l 6.3125,-1.8125 0,-7.25 -6.3125,-1.8125 c -0.45232,-1.6418 -1.1134,-3.2078 -1.9375,-4.6562 l 3.1875,-5.7188 -5.125,-5.125 -5.71875,3.1875 c -1.44843,-0.8241 -3.0144,-1.4852 -4.65625,-1.9375 l -1.8125,-6.3125 -7.25,0 z m 3.625,15 c 6.05145,0 11,4.9486 11,11 0,6.0514 -4.94855,11 -11,11 -6.05145,0 -11,-4.9486 -11,-11 0,-6.0514 4.94855,-11 11,-11 z m 0,4 c -3.88967,0 -7,3.1104 -7,7 0,3.8896 3.11033,7 7,7 3.88967,0 7,-3.1104 7,-7 0,-3.8896 -3.11033,-7 -7,-7 z" style="color:#000000;enable-background:accumulate;" fill="#000000" stroke="none" marker="none" visibility="visible" display="inline" overflow="visible"/></g><text x="0" y="75" fill="#000000" font-size="5px" font-weight="bold" font-family="'Helvetica Neue', Helvetica, Arial-Unicode, Arial, Sans-serif"></text><text x="0" y="80" fill="#000000" font-size="5px" font-weight="bold" font-family="'Helvetica Neue', Helvetica, Arial-Unicode, Arial, Sans-serif"></text></svg>