<svg xmlns="http://www.w3.org/2000/svg" xmlns:xlink="http://www.w3.org/1999/xlink" version="1.1" x="0px" y="0px" viewBox="0 0 100 125" style="enable-background:new 0 0 100 100;" xml:space="preserve"><g><path d="M61.158,11.159c0,6.163-4.996,11.158-11.158,11.159c-6.163-0.001-11.159-4.996-11.159-11.159S43.837,0.001,50,0   C56.162,0.001,61.158,4.996,61.158,11.159z M79.889,54.109L72.348,38.57c-4.109-8.498-6.879-14.331-15.063-14.331h-14.57   c-8.184,0-10.954,5.833-15.063,14.331l-7.541,15.539c-1.12,2.293-0.16,5.047,2.133,6.166c2.294,1.119,5.072,0.168,6.191-2.125   L38.863,38.01v56.974c0,2.771,2.246,5.017,5.016,5.017c2.771,0,5.017-2.246,5.017-5.017V65.779h2.209v29.204   c0,2.771,2.246,5.017,5.017,5.017c2.77,0,5.016-2.246,5.016-5.017V38.01L71.564,58.15c1.119,2.293,3.897,3.244,6.191,2.125   C80.049,59.156,81.008,56.402,79.889,54.109z"/></g><text x="0" y="115" fill="#000000" font-size="5px" font-weight="bold" font-family="'Helvetica Neue', Helvetica, Arial-Unicode, Arial, Sans-serif"></text><text x="0" y="120" fill="#000000" font-size="5px" font-weight="bold" font-family="'Helvetica Neue', Helvetica, Arial-Unicode, Arial, Sans-serif"></text></svg>