<svg xmlns="http://www.w3.org/2000/svg" xmlns:xlink="http://www.w3.org/1999/xlink" version="1.1" x="0px" y="0px" viewBox="0 0 100 125" style="enable-background:new 0 0 100 100;" xml:space="preserve"><g><path d="M49.999,22.317c6.163,0,11.159-4.994,11.159-11.157C61.158,4.996,56.162,0,49.999,0c-6.162,0-11.16,4.996-11.16,11.16   C38.839,17.323,43.837,22.317,49.999,22.317z M79.89,54.109L72.35,38.57c-4.109-8.498-6.881-14.33-15.066-14.33H42.715   c-8.184,0-10.953,5.832-15.062,14.33L20.11,54.109c-1.118,2.294-0.159,5.045,2.135,6.166c2.294,1.119,5.07,0.168,6.19-2.126   l10.426-20.14l-7.619,37.859h7.619v19.113c0,2.771,2.246,5.018,5.017,5.018c2.771,0,5.017-2.246,5.017-5.018V75.869h2.208v19.113   c0,2.771,2.246,5.018,5.018,5.018c2.771,0,5.017-2.246,5.017-5.018V75.869h7.619L61.138,38.01l10.427,20.14   c1.119,2.294,3.898,3.245,6.191,2.126C80.049,59.154,81.008,56.403,79.89,54.109z"/></g><text x="0" y="115" fill="#000000" font-size="5px" font-weight="bold" font-family="'Helvetica Neue', Helvetica, Arial-Unicode, Arial, Sans-serif"></text><text x="0" y="120" fill="#000000" font-size="5px" font-weight="bold" font-family="'Helvetica Neue', Helvetica, Arial-Unicode, Arial, Sans-serif"></text></svg>