<svg xmlns="http://www.w3.org/2000/svg" xmlns:xlink="http://www.w3.org/1999/xlink" version="1.1" x="0px" y="0px" viewBox="0 0 17 21.25" style="enable-background:new 0 0 17 17;" xml:space="preserve"><g><g><path d="M14.5,7.6c-0.1-1-0.5-1.9-1.1-2.7l1.6-1.2c0.8,1.1,1.3,2.3,1.5,3.6L14.5,7.6z"/></g><g><path d="M12.1,3.7c-0.8-0.6-1.7-1-2.7-1.1l0.3-2c1.3,0.2,2.6,0.7,3.6,1.5L12.1,3.7z"/></g><g><path d="M8.5,16.5c-4.4,0-8-3.6-8-8c0-4,2.9-7.4,6.9-7.9l0.3,2c-2.9,0.4-5.1,3-5.1,5.9c0,3.3,2.7,6,6,6    c3,0,5.5-2.2,5.9-5.1l2,0.3C15.9,13.5,12.5,16.5,8.5,16.5z"/></g></g><text x="0" y="32" fill="#000000" font-size="5px" font-weight="bold" font-family="'Helvetica Neue', Helvetica, Arial-Unicode, Arial, Sans-serif">Created by Creative Stall</text><text x="0" y="37" fill="#000000" font-size="5px" font-weight="bold" font-family="'Helvetica Neue', Helvetica, Arial-Unicode, Arial, Sans-serif">from the Noun Project</text></svg>