<svg xmlns="http://www.w3.org/2000/svg" xmlns:xlink="http://www.w3.org/1999/xlink" version="1.1" x="0px" y="0px" viewBox="0 0 512 640" style="enable-background:new 0 0 512 512;" xml:space="preserve"><g><path d="M47.543,448h331.085V149.828H276.971V237.6c0,3.248-1.578,6.294-4.23,8.168l-113.257,80   c-1.72,1.215-3.741,1.832-5.771,1.832c-1.572,0-3.15-0.37-4.598-1.12c-3.318-1.719-5.401-5.144-5.401-8.88V149.828H47.543V448z"/><polygon points="256.971,232.42 256.971,149.828 163.714,149.828 163.714,298.293  "/><polygon points="398.628,437.656 464.457,386.877 464.457,75.399 398.628,141.228  "/><polygon points="447.572,64 108.318,64 58.051,129.828 381.744,129.828  "/></g><text x="0" y="527" fill="#000000" font-size="5px" font-weight="bold" font-family="'Helvetica Neue', Helvetica, Arial-Unicode, Arial, Sans-serif"></text><text x="0" y="532" fill="#000000" font-size="5px" font-weight="bold" font-family="'Helvetica Neue', Helvetica, Arial-Unicode, Arial, Sans-serif"></text></svg>