<svg xmlns:dc="http://purl.org/dc/elements/1.1/" xmlns:cc="http://creativecommons.org/ns#" xmlns:rdf="http://www.w3.org/1999/02/22-rdf-syntax-ns#" xmlns:svg="http://www.w3.org/2000/svg" xmlns="http://www.w3.org/2000/svg" xmlns:sodipodi="http://sodipodi.sourceforge.net/DTD/sodipodi-0.dtd" xmlns:inkscape="http://www.inkscape.org/namespaces/inkscape" viewBox="0 0 8.4666667 10.583333625" version="1.1" x="0px" y="0px"><svg:g><svg:path style="color:#000000;font-style:normal;font-variant:normal;font-weight:normal;font-stretch:normal;font-size:medium;line-height:normal;font-family:sans-serif;font-variant-ligatures:normal;font-variant-position:normal;font-variant-caps:normal;font-variant-numeric:normal;font-variant-alternates:normal;font-feature-settings:normal;text-indent:0;text-align:start;text-decoration:none;text-decoration-line:none;text-decoration-style:solid;text-decoration-color:#000000;letter-spacing:normal;word-spacing:normal;text-transform:none;writing-mode:lr-tb;direction:ltr;text-orientation:mixed;dominant-baseline:auto;baseline-shift:baseline;text-anchor:start;white-space:normal;shape-padding:0;clip-rule:nonzero;display:inline;overflow:visible;visibility:visible;opacity:1;isolation:auto;mix-blend-mode:normal;color-interpolation:sRGB;color-interpolation-filters:linearRGB;solid-color:#000000;solid-opacity:1;vector-effect:none;fill:#000000;fill-opacity:1;fill-rule:nonzero;stroke:none;stroke-width:0.52916676;stroke-linecap:round;stroke-linejoin:round;stroke-miterlimit:4;stroke-dasharray:none;stroke-dashoffset:0;stroke-opacity:1;paint-order:stroke fill markers;color-rendering:auto;image-rendering:auto;shape-rendering:auto;text-rendering:auto;enable-background:accumulate" d="m 0.26280833,0.73044683 a 0.2648417,0.2648417 0 0 0 0,0.52968297 H 1.1320069 l 0.081648,0.566374 0.5353685,3.681429 a 0.26460987,0.26460987 0 0 0 0.2614824,0.226343 H 7.6690752 A 0.26460987,0.26460987 0 0 0 7.9305576,5.5079328 L 8.4659261,1.8265038 A 0.26460987,0.26460987 0 0 0 8.2039251,1.5236798 H 1.7040652 L 1.6218988,0.95730583 A 0.26460987,0.26460987 0 0 0 1.3604164,0.73044683 Z M 3.2491895,5.9745708 c -0.4835181,0 -0.8810837,0.397563 -0.8810837,0.881083 0,0.483521 0.3975656,0.880566 0.8810837,0.880566 0.4835207,0 0.8805677,-0.397045 0.8805677,-0.880566 0,-0.48352 -0.397047,-0.881083 -0.8805677,-0.881083 z m 3.1817177,0 c -0.4835181,0 -0.88315,0.397563 -0.88315,0.881083 0,0.483521 0.3996319,0.880566 0.88315,0.880566 0.4835208,0 0.8805677,-0.397045 0.8805677,-0.880566 0,-0.48352 -0.3970469,-0.881083 -0.8805677,-0.881083 z"/></svg:g><text x="0" y="23.4666669" fill="#000000" font-size="5px" font-weight="bold" font-family="'Helvetica Neue', Helvetica, Arial-Unicode, Arial, Sans-serif">Created by Larea</text><text x="0" y="28.4666669" fill="#000000" font-size="5px" font-weight="bold" font-family="'Helvetica Neue', Helvetica, Arial-Unicode, Arial, Sans-serif">from the Noun Project</text></svg>