<svg xmlns="http://www.w3.org/2000/svg" data-name="Layer 1" viewBox="0 0 100 125" x="0px" y="0px"><title>Artboard 33</title><path d="M92,41H84.82A35.73,35.73,0,0,0,81,31.74l5.08-5.08a6,6,0,0,0,0-8.49l-4.24-4.24a6,6,0,0,0-8.49,0L68.26,19A35.73,35.73,0,0,0,59,15.18V8a6,6,0,0,0-6-6H47a6,6,0,0,0-6,6v7.18A35.73,35.73,0,0,0,31.74,19l-5.08-5.08a6,6,0,0,0-8.49,0l-4.24,4.24a6,6,0,0,0,0,8.49L19,31.74A35.73,35.73,0,0,0,15.18,41H8a6,6,0,0,0-6,6v6a6,6,0,0,0,6,6h7.18A35.73,35.73,0,0,0,19,68.26l-5.08,5.08a6,6,0,0,0,0,8.49l4.24,4.24a6,6,0,0,0,8.49,0L31.74,81A35.73,35.73,0,0,0,41,84.82V92a6,6,0,0,0,6,6h6a6,6,0,0,0,6-6V84.82A35.73,35.73,0,0,0,68.26,81l5.08,5.08a6,6,0,0,0,8.49,0l4.24-4.24a6,6,0,0,0,0-8.49L81,68.26A35.73,35.73,0,0,0,84.82,59H92a6,6,0,0,0,6-6V47A6,6,0,0,0,92,41ZM50,65A15,15,0,1,1,65,50,15,15,0,0,1,50,65Z"/><text x="0" y="115" fill="#000000" font-size="5px" font-weight="bold" font-family="'Helvetica Neue', Helvetica, Arial-Unicode, Arial, Sans-serif">Created by Gregor Cresnar</text><text x="0" y="120" fill="#000000" font-size="5px" font-weight="bold" font-family="'Helvetica Neue', Helvetica, Arial-Unicode, Arial, Sans-serif">from the Noun Project</text></svg>