<svg xmlns="http://www.w3.org/2000/svg" xmlns:xlink="http://www.w3.org/1999/xlink" version="1.1" x="0px" y="0px" viewBox="0 0 100 125" style="enable-background:new 0 0 100 100;" xml:space="preserve"><g><path d="M35.354,14.77C35.354,6.612,41.967,0,50.124,0s14.769,6.612,14.769,14.77s-6.612,14.77-14.769,14.77   S35.354,22.927,35.354,14.77z M82.959,33.161c0,0-21.855-2.582-32.959-2.582c-11.103,0-32.959,2.582-32.959,2.582   c-3.732,0.439-6.4,3.821-5.959,7.554c0.44,3.73,3.821,6.399,7.553,5.959l15.241-1.271v13.541h32.107V45.391l15.383,1.283   c3.732,0.44,7.113-2.229,7.553-5.959C89.359,36.982,86.691,33.601,82.959,33.161z M57.217,75.225l7.267,6.332l-5.53,6.451   c-2.625,3.014-2.312,7.586,0.701,10.211c3.014,2.626,7.585,2.312,10.211-0.702l10.193-11.892c2.053-2.354,2.361-5.69,0.885-8.246   c-0.642-1.111-7.229-6.988-12.542-11.637C64.526,65.029,57.467,66.42,57.217,75.225z M31.882,65.794   c-5.114,4.344-11.251,9.774-12.192,11.585c-1.423,2.586-1.167,5.892,0.885,8.246l10.194,11.892   c2.626,3.014,7.197,3.328,10.21,0.702c3.013-2.625,3.328-7.197,0.702-10.211l-5.53-6.451l7.18-6.258   C43.113,66.227,35.702,64.967,31.882,65.794z M53.178,60.186h-1.053h-0.711v0.356h-0.892v0.711h0.913l1.217,0.568l-1.229,0.501   h-0.901v0.711h0.892v0.355h0.711h1.053c0.883,0,1.602-0.718,1.602-1.601C54.779,60.904,54.061,60.186,53.178,60.186z    M48.846,62.322v0.711h-2.379c-0.687,0-1.246-0.559-1.246-1.245c0-0.688,0.559-1.246,1.246-1.246h2.379v0.711h-1.343   c0.175,0.334,0.173,0.737-0.003,1.069H48.846z M47.101,61.79c0.002-0.229-0.122-0.43-0.308-0.537h-0.326   c-0.295,0-0.535,0.239-0.535,0.535c0,0.295,0.24,0.534,0.535,0.534h0.316C46.97,62.219,47.099,62.02,47.101,61.79z"/></g><text x="0" y="115" fill="#000000" font-size="5px" font-weight="bold" font-family="'Helvetica Neue', Helvetica, Arial-Unicode, Arial, Sans-serif"></text><text x="0" y="120" fill="#000000" font-size="5px" font-weight="bold" font-family="'Helvetica Neue', Helvetica, Arial-Unicode, Arial, Sans-serif"></text></svg>